<svg width="120" height="120" viewBox="0 0 120 120" fill="none" xmlns="http://www.w3.org/2000/svg">
<path d="M50.3226 94.8387V1.93549H27.0968V94.8387V98.7097V118.065H92.9033V94.8387H50.3226Z" fill="#F7DEA6"/>
<path d="M52.2581 92.9032V0H25.1613V120H94.8387V92.9032H52.2581ZM48.3871 3.87097V94.0374L34.7013 107.723L37.4381 110.46L51.1239 96.7742H90.9678V104.516H52.2581V116.129H31.7691L34.2716 113.626L31.5349 110.89L29.0323 113.392V98.7097H42.5807V94.8387H29.0323V90.9677H34.8387V87.0968H29.0323V83.2258H42.5807V79.3548H29.0323V75.4839H34.8387V71.6129H29.0323V67.7419H42.5807V63.871H29.0323V60H34.8387V56.129H29.0323V52.2581H42.5807V48.3871H29.0323V44.5161H34.8387V40.6452H29.0323V36.7742H42.5807V32.9032H29.0323V29.0323H34.8387V25.1613H29.0323V3.87097H48.3871ZM63.871 108.387H67.742V116.129H63.871V108.387ZM60 116.129H56.1291V108.387H60V116.129ZM71.6129 108.387H75.4839V116.129H71.6129V108.387ZM79.3549 108.387H83.2258V116.129H79.3549V108.387ZM87.0968 116.129V108.387H90.9678V116.129H87.0968Z" fill="#333333"/>
<path d="M38.7097 19.3548C41.911 19.3548 44.5162 16.7497 44.5162 13.5484C44.5162 10.3471 41.911 7.74194 38.7097 7.74194C35.5084 7.74194 32.9033 10.3471 32.9033 13.5484C32.9033 16.7497 35.5084 19.3548 38.7097 19.3548ZM38.7097 11.6129C39.7781 11.6129 40.6452 12.48 40.6452 13.5484C40.6452 14.6168 39.7781 15.4839 38.7097 15.4839C37.6413 15.4839 36.7742 14.6168 36.7742 13.5484C36.7742 12.48 37.6413 11.6129 38.7097 11.6129Z" fill="#333333"/>
</svg>
